<?xml version="1.0" standalone="no"?>
<!DOCTYPE svg PUBLIC "-//W3C//DTD SVG 20010904//EN"
 "http://www.w3.org/TR/2001/REC-SVG-20010904/DTD/svg10.dtd">
<svg version="1.0" xmlns="http://www.w3.org/2000/svg"
 width="512.000000pt" height="512.000000pt" viewBox="0 0 512.000000 512.000000"
 preserveAspectRatio="xMidYMid meet">
<metadata>
Created by potrace 1.11, written by Peter Selinger 2001-2013
</metadata>
<g transform="translate(0.000000,512.000000) scale(0.100000,-0.100000)"
fill="#000000" stroke="none">
<path d="M2315 5109 c-598 -62 -1144 -320 -1564 -740 -406 -406 -648 -901
-733 -1494 -17 -118 -17 -512 0 -630 85 -593 327 -1088 733 -1494 403 -402
906 -649 1494 -733 118 -17 512 -17 630 0 489 70 927 256 1290 549 515 415
840 998 937 1678 17 118 17 512 0 630 -70 489 -256 927 -549 1290 -409 506
-974 829 -1633 930 -126 19 -477 28 -605 14z m361 -1280 c316 -30 591 -162
805 -386 118 -124 200 -248 258 -395 165 -411 113 -871 -138 -1228 -337 -479
-973 -662 -1528 -440 -307 123 -570 385 -692 692 -197 491 -82 1045 291 1404
235 226 517 344 869 363 14 0 75 -4 135 -10z"/>
</g>
</svg>
